<?xml version="1.0" standalone="no"?><!DOCTYPE svg PUBLIC "-//W3C//DTD SVG 1.1//EN" "http://www.w3.org/Graphics/SVG/1.1/DTD/svg11.dtd"><svg t="1545375831610" class="icon" style="" viewBox="0 0 1024 1024" version="1.1" xmlns="http://www.w3.org/2000/svg" p-id="1697" xmlns:xlink="http://www.w3.org/1999/xlink" width="16" height="16"><defs><style type="text/css"></style></defs><path d="M552.2432 713.66656Q225.11616 815.104 300.31872 482.69312t327.12704-101.43744q251.94496 230.97344-75.20256 332.41088z m28.34432-284.85632c-120.832-118.784-185.38496-82.90304-222.72 64.57344-35.6352 140.6976-14.70464 195.03104 171.52 147.02592 177.93024-45.8752 158.53568-105.8816 51.2-211.59936zM737.28 204.8a40.96 40.96 0 1 1-40.96 40.96 40.96 40.96 0 0 1 40.96-40.96z m225.28 553.94304a40.96 40.96 0 0 1-40.96-40.96V226.85696a122.88 122.88 0 0 0-122.88-123.04384H225.28a122.88 122.88 0 0 0-122.88 123.04384V799.744a122.88 122.88 0 0 0 122.88 123.04384h696.32a40.96 40.96 0 0 1 0 82.0224H225.28A204.92288 204.92288 0 0 1 20.48 799.744V226.85696A204.92288 204.92288 0 0 1 225.28 21.79072h573.44a204.92288 204.92288 0 0 1 204.8 205.06624v490.86464a40.96 40.96 0 0 1-40.96 41.02144z" p-id="1698" fill="#e2e4e6"></path></svg>