<?xml version="1.0" standalone="no"?><!DOCTYPE svg PUBLIC "-//W3C//DTD SVG 1.1//EN" "http://www.w3.org/Graphics/SVG/1.1/DTD/svg11.dtd"><svg t="1552724451408" class="icon" style="" viewBox="0 0 1024 1024" version="1.1" xmlns="http://www.w3.org/2000/svg" p-id="7817" xmlns:xlink="http://www.w3.org/1999/xlink" width="20" height="20"><defs><style type="text/css"></style></defs><path d="M512 1024C229.233778 1024 0 794.766222 0 512 0 229.233778 229.233778 0 512 0 794.766222 0 1024 229.233778 1024 512 1024 794.766222 794.766222 1024 512 1024ZM810.780444 354.872889C792.092444 336.298667 761.799111 336.298667 743.111111 354.872889L472.405333 624.184889 337.038222 489.585778C318.350222 470.983111 288.056889 470.983111 269.368889 489.585778 250.680889 508.16 250.680889 538.282667 269.368889 556.885333L438.556444 725.134222C457.244444 743.736889 487.537778 743.736889 506.254222 725.134222L810.780444 422.172444C829.468444 403.598222 829.468444 373.447111 810.780444 354.872889Z" fill="#13e658" p-id="7818"></path></svg>