<?xml version="1.0" standalone="no"?><!DOCTYPE svg PUBLIC "-//W3C//DTD SVG 1.1//EN" "http://www.w3.org/Graphics/SVG/1.1/DTD/svg11.dtd"><svg t="1545455694840" class="icon" style="" viewBox="0 0 1024 1024" version="1.1" xmlns="http://www.w3.org/2000/svg" p-id="2275" xmlns:xlink="http://www.w3.org/1999/xlink" width="20" height="20"><defs><style type="text/css"></style></defs><path d="M603.415667 448.767819m-27.460833 0a27.460833 27.460833 0 1 0 54.921666 0 27.460833 27.460833 0 1 0-54.921666 0Z"  p-id="2276"></path><path d="M507.302752 448.767819m-27.460832 0a27.460833 27.460833 0 1 0 54.921665 0 27.460833 27.460833 0 1 0-54.921665 0Z"  p-id="2277"></path><path d="M411.189838 448.767819m-27.460833 0a27.460833 27.460833 0 1 0 54.921665 0 27.460833 27.460833 0 1 0-54.921665 0Z"  p-id="2278"></path><path d="M846.949894 135.136203H166.932957c-36.855328 0-66.484121 29.628793-66.484121 66.484122v495.017643c0 36.855328 29.628793 66.484121 66.484121 66.484121h314.35427v62.1482h-224.022583c-13.730416 0-25.292872 11.562456-25.292873 25.292873s11.562456 25.292872 25.292873 25.292872h499.353563c13.730416 0 25.292872-11.562456 25.292873-25.292872s-11.562456-25.292872-25.292873-25.292873h-224.022582v-62.1482h314.354269c36.855328 0 66.484121-29.628793 66.484122-66.484121V201.620325c0-36.855328-29.628793-66.484121-66.484122-66.484122z m15.898377 560.779111c0 8.671842-7.226535 15.898377-15.898377 15.898377H166.932957c-8.671842 0-15.898377-7.226535-15.898377-15.898377V201.620325c0-8.671842 7.226535-15.898377 15.898377-15.898377h680.016937c8.671842 0 15.898377 7.226535 15.898377 15.898377v494.294989z" p-id="2279"></path></svg>