<?xml version="1.0" standalone="no"?><!DOCTYPE svg PUBLIC "-//W3C//DTD SVG 1.1//EN" "http://www.w3.org/Graphics/SVG/1.1/DTD/svg11.dtd"><svg t="1555984436575" class="icon" style="" viewBox="0 0 1024 1024" version="1.1" xmlns="http://www.w3.org/2000/svg" p-id="2456" xmlns:xlink="http://www.w3.org/1999/xlink" width="20" height="20"><defs><style type="text/css"></style></defs><path d="M512 1024C228.613953 1024 0 795.386047 0 512S228.613953 0 512 0 1024 228.613953 1024 512c0 38.102326-4.762791 73.823256-11.906977 111.925581-4.762791 19.051163-23.813953 30.95814-42.865116 26.195349-19.051163-4.762791-30.95814-23.813953-26.195349-42.865116 7.144186-30.95814 9.525581-64.297674 9.525582-95.255814C952.55814 269.097674 754.902326 71.44186 512 71.44186S71.44186 269.097674 71.44186 512 269.097674 952.55814 512 952.55814c66.67907 0 130.976744-14.288372 190.511628-42.865117 16.669767-9.525581 38.102326 0 47.627907 16.669768 9.525581 16.669767 0 38.102326-16.669768 47.627907-71.44186 33.339535-145.265116 50.009302-221.469767 50.009302z" fill="" p-id="2457"></path><path d="M928.744186 690.604651m-95.255814 0a95.255814 95.255814 0 1 0 190.511628 0 95.255814 95.255814 0 1 0-190.511628 0Z" fill="" p-id="2458"></path><path d="M512 833.488372c-19.051163 0-35.72093-16.669767-35.72093-35.72093v-547.72093c0-19.051163 16.669767-35.72093 35.72093-35.720931s35.72093 16.669767 35.72093 35.720931v547.72093c0 19.051163-16.669767 35.72093-35.72093 35.72093zM392.930233 750.139535c-19.051163 0-35.72093-16.669767-35.720931-35.72093V333.395349c0-19.051163 16.669767-35.72093 35.720931-35.72093s35.72093 16.669767 35.72093 35.72093v381.023256c0 19.051163-16.669767 35.72093-35.72093 35.72093zM631.069767 762.046512c-19.051163 0-35.72093-16.669767-35.72093-35.720931v-381.023255c0-19.051163 16.669767-35.72093 35.72093-35.720931s35.72093 16.669767 35.720931 35.720931v381.023255c0 19.051163-16.669767 35.72093-35.720931 35.720931zM750.139535 654.883721c-19.051163 0-35.72093-16.669767-35.72093-35.72093v-166.697675c0-19.051163 16.669767-35.72093 35.72093-35.72093s35.72093 16.669767 35.72093 35.72093v166.697675c0 19.051163-16.669767 35.72093-35.72093 35.72093zM273.860465 666.790698c-19.051163 0-35.72093-16.669767-35.72093-35.720931v-166.697674c0-19.051163 16.669767-35.72093 35.72093-35.72093s35.72093 16.669767 35.72093 35.72093v166.697674c0 19.051163-16.669767 35.72093-35.72093 35.720931z" fill="" p-id="2459"></path></svg>